<?xml version="1.0" encoding="UTF-8" standalone="no"?>
<!-- Uploaded to: SVG Repo, www.svgrepo.com, Generator: SVG Repo Mixer Tools -->

<svg
   width="800px"
   height="800px"
   viewBox="0 -28.5 256 256"
   version="1.1"
   preserveAspectRatio="xMidYMid"
   id="svg1"
   sodipodi:docname="discord-icon-dark.svg"
   inkscape:version="1.4 (e7c3feb1, 2024-10-09)"
   xmlns:inkscape="http://www.inkscape.org/namespaces/inkscape"
   xmlns:sodipodi="http://sodipodi.sourceforge.net/DTD/sodipodi-0.dtd"
   xmlns="http://www.w3.org/2000/svg"
   xmlns:svg="http://www.w3.org/2000/svg">
  <defs
     id="defs1" />
  <sodipodi:namedview
     id="namedview1"
     pagecolor="#505050"
     bordercolor="#ffffff"
     borderopacity="1"
     inkscape:showpageshadow="0"
     inkscape:pageopacity="0"
     inkscape:pagecheckerboard="1"
     inkscape:deskcolor="#505050"
     inkscape:zoom="0.47082306"
     inkscape:cx="436.4697"
     inkscape:cy="357.88392"
     inkscape:window-width="1552"
     inkscape:window-height="628"
     inkscape:window-x="63"
     inkscape:window-y="198"
     inkscape:window-maximized="0"
     inkscape:current-layer="svg1" />
  <g
     id="g1">
    <path
       d="M216.856339,16.5966031 C200.285002,8.84328665 182.566144,3.2084988 164.041564,0 C161.766523,4.11318106 159.108624,9.64549908 157.276099,14.0464379 C137.583995,11.0849896 118.072967,11.0849896 98.7430163,14.0464379 C96.9108417,9.64549908 94.1925838,4.11318106 91.8971895,0 C73.3526068,3.2084988 55.6133949,8.86399117 39.0420583,16.6376612 C5.61752293,67.146514 -3.4433191,116.400813 1.08711069,164.955721 C23.2560196,181.510915 44.7403634,191.567697 65.8621325,198.148576 C71.0772151,190.971126 75.7283628,183.341335 79.7352139,175.300261 C72.104019,172.400575 64.7949724,168.822202 57.8887866,164.667963 C59.7209612,163.310589 61.5131304,161.891452 63.2445898,160.431257 C105.36741,180.133187 151.134928,180.133187 192.754523,160.431257 C194.506336,161.891452 196.298154,163.310589 198.110326,164.667963 C191.183787,168.842556 183.854737,172.420929 176.223542,175.320965 C180.230393,183.341335 184.861538,190.991831 190.096624,198.16893 C211.238746,191.588051 232.743023,181.531619 254.911949,164.955721 C260.227747,108.668201 245.831087,59.8662432 216.856339,16.5966031 Z M85.4738752,135.09489 C72.8290281,135.09489 62.4592217,123.290155 62.4592217,108.914901 C62.4592217,94.5396472 72.607595,82.7145587 85.4738752,82.7145587 C98.3405064,82.7145587 108.709962,94.5189427 108.488529,108.914901 C108.508531,123.290155 98.3405064,135.09489 85.4738752,135.09489 Z M170.525237,135.09489 C157.88039,135.09489 147.510584,123.290155 147.510584,108.914901 C147.510584,94.5396472 157.658606,82.7145587 170.525237,82.7145587 C183.391518,82.7145587 193.761324,94.5189427 193.539891,108.914901 C193.539891,123.290155 183.391518,135.09489 170.525237,135.09489 Z"
       fill="#5865F2"
       fill-rule="nonzero"
       id="path1" />
  </g>
  <path
     style="fill:#172d4c;stroke-width:1.50185"
     d="M 185.47878,700.77155 C 120.81568,677.63033 66.976097,649.32991 10.892054,609.00119 7.4154366,606.50123 4.2540727,602.82429 3.7900988,600.741 1.8462617,592.01295 0.5231954,530.11129 1.6875412,502.36966 6.7775858,381.09455 43.116805,267.84634 112.34439,157.51663 l 10.05659,-16.02743 21.77686,-9.31759 c 25.60212,-10.95429 66.95978,-24.99651 92.36393,-31.36044 24.48617,-6.133971 48.68468,-10.954871 50.22124,-10.005226 1.51923,0.938939 19.6149,37.550276 19.6149,39.685066 0,2.97445 2.95488,3.10622 19.73212,0.87993 42.07088,-5.58267 103.0457,-5.58999 147.63461,-0.0177 9.86281,1.23256 18.02796,2.08795 18.14478,1.90087 0.1168,-0.18707 4.83442,-9.97076 10.48359,-21.74153 5.64916,-11.770771 10.7587,-21.4014 11.35451,-21.4014 0.59582,0 8.08364,1.381579 16.63958,3.070175 42.20607,8.329755 91.10691,23.820915 132.49818,41.973705 l 14.45932,6.34137 11.19092,17.66443 c 60.36394,95.28209 95.92059,196.61103 107.78497,307.16437 2.18911,20.39833 2.66491,109.07387 0.68095,126.90654 -1.41713,12.73769 1.31233,9.79478 -27.28204,29.41541 -33.15731,22.75158 -76.80762,46.66363 -112.84554,61.81783 -20.21943,8.50241 -61.96147,23.67364 -62.59031,22.74857 -0.22131,-0.32557 -2.12404,-2.95737 -4.22827,-5.84843 -7.16951,-9.85041 -21.88359,-33.75791 -30.14797,-48.98456 l -8.24604,-15.19289 12.15958,-4.90838 c 12.35455,-4.9871 42.60051,-19.93378 51.70049,-25.5489 l 4.9983,-3.08418 -8.74258,-6.78878 c -4.80844,-3.73381 -9.76101,-6.4628 -11.00573,-6.06439 -1.2447,0.39841 -13.07645,5.14727 -26.29275,10.55302 -40.12517,16.41208 -87.44677,28.23506 -129.6939,32.4031 -20.02578,1.97571 -67.56083,1.9727 -87.54013,-0.006 -48.20135,-4.77266 -99.49577,-18.0735 -143.9615,-37.32977 -7.84717,-3.39831 -14.79435,-6.18032 -15.43817,-6.18227 -1.40232,-0.004 -16.67196,11.86971 -17.2698,13.42934 -0.48773,1.27233 45.92596,25.08952 58.61493,30.07826 4.74961,1.86732 8.63565,3.67617 8.63565,4.01967 0,0.34349 -4.72092,9.05858 -10.49092,19.36686 -11.29147,20.17252 -30.9367,50.29468 -32.72093,50.17117 -0.60103,-0.0416 -9.2028,-2.978 -19.11503,-6.52533 z m 94.03626,-190.14963 c 26.8834,-5.01725 49.38507,-28.13844 57.10863,-58.68098 4.04266,-15.98658 3.38907,-37.78446 -1.56536,-52.20576 -12.84395,-37.38602 -47.99472,-59.1876 -82.57489,-51.21545 -25.48379,5.87506 -47.68035,29.16779 -54.95735,57.67145 -2.94728,11.54432 -2.9421,35.20424 0.0102,46.5388 5.37204,20.62461 21.11726,41.81649 37.69976,50.74097 14.50788,7.80797 28.58085,10.08072 44.27904,7.15097 z m 265.82789,0 c 24.80454,-4.62927 47.27142,-26.05786 55.82541,-53.24546 4.78264,-15.20096 4.69626,-43.92321 -0.17335,-57.64128 -7.20356,-20.29297 -20.99068,-36.80384 -37.8003,-45.26803 -39.30102,-19.78932 -84.08823,1.59779 -98.43203,47.00396 -4.64323,14.6984 -5.27493,36.8428 -1.46054,51.19895 3.59077,13.51449 12.52221,29.17329 21.92265,38.43527 17.33041,17.07516 37.72464,23.69588 60.11816,19.51659 z"
     id="path2"
     transform="matrix(0.32,0,0,0.32,0,-28.5)" />
  <path
     style="fill:#a5b6d0;stroke-width:2.12394;fill-opacity:1"
     d="M 181.59688,697.97204 C 127.20331,678.15578 85.954116,657.38583 37.116897,625.22297 1.5675184,601.81111 4.2033313,607.02598 2.7641114,557.25722 -0.91545716,430.01638 26.846111,313.46612 86.986323,203.67053 c 26.407737,-48.21154 35.284697,-60.76047 46.498767,-65.73304 36.59534,-16.22719 87.41399,-32.76248 127.47995,-41.479226 28.27903,-6.152382 25.29581,-7.731857 37.89477,20.063616 l 8.04954,17.75866 11.68167,-1.29301 c 54.11698,-5.99007 113.15017,-5.97414 162.85401,0.0439 l 10.99226,1.33093 10.83995,-21.60113 10.83995,-21.601126 7.90295,1.409401 c 36.39733,6.491058 91.96584,23.446065 132.17169,40.328075 l 22.31964,9.37178 14.84188,23.87711 c 49.14891,79.069 80.77276,162.08151 98.05327,257.38946 4.93559,27.22152 5.50761,36.35382 6.33125,101.07725 0.70999,55.79389 0.30736,72.29811 -1.86531,76.46184 -5.40583,10.35973 -74.01625,53.15105 -118.00439,73.59761 -21.55213,10.01784 -74.88843,30.48153 -79.40442,30.46533 -5.2265,-0.0188 -44.25012,-64.79666 -40.79201,-67.71334 1.0244,-0.86402 9.98662,-5.11663 19.91604,-9.45028 22.54647,-9.8403 43.02865,-21.11506 44.07815,-24.26359 0.43898,-1.31693 -3.19848,-5.03926 -8.08327,-8.27186 l -8.8814,-5.87745 -13.02575,4.957 c -7.16417,2.72633 -26.40658,9.56465 -42.76092,15.19628 -106.00003,36.50117 -221.49776,31.95719 -329.62944,-12.96844 l -19.53416,-8.11587 -8.74703,6.33631 c -4.81087,3.48498 -8.41104,7.47973 -8.00038,8.87724 0.41066,1.39749 15.24708,9.82014 32.96984,18.71697 l 32.22317,16.17603 -10.77135,18.86898 c -15.5598,27.2572 -29.34937,47.55831 -32.22108,47.4361 -1.3705,-0.0583 -11.09377,-3.23984 -21.60728,-7.07004 z M 299.17566,504.40059 c 14.11377,-7.68983 24.33171,-19.20382 32.95391,-37.13376 6.25069,-12.99836 6.63888,-15.23381 6.63888,-38.23092 0,-22.92256 -0.40476,-25.2747 -6.57871,-38.23092 -17.24045,-36.1795 -54.58186,-53.20211 -88.56703,-40.37453 -25.37412,9.57737 -45.62729,37.31469 -48.09081,65.86181 -2.93992,34.06764 5.52585,59.1203 26.43565,78.23066 15.36575,14.04345 25.01704,17.41083 47.77285,16.66817 15.27281,-0.49842 19.80657,-1.54433 29.43526,-6.79051 z m 263.2675,0.96225 c 15.08,-7.53557 27.48058,-20.58839 35.94221,-37.83266 5.44943,-11.10568 5.86131,-13.81056 5.86131,-38.49427 0,-25.0447 -0.35234,-27.26882 -6.21722,-39.24657 -7.5645,-15.44888 -21.98563,-30.26128 -36.24729,-37.2308 -8.70023,-4.2517 -13.8828,-5.19544 -28.67319,-5.22128 -22.13137,-0.0387 -33.47256,4.52403 -48.43429,19.48579 -39.96746,39.96743 -29.74245,114.13287 19.1001,138.53979 11.13593,5.56468 15.38296,6.50674 29.33419,6.50674 13.95123,0 18.19826,-0.94206 29.33418,-6.50674 z"
     id="path3"
     transform="matrix(0.32,0,0,0.32,0,-28.5)" />
</svg>
