<?xml version="1.0" encoding="UTF-8" standalone="no"?>
<svg
   width="1024"
   height="1024"
   viewBox="0 0 1024 1024"
   fill="none"
   version="1.1"
   id="svg1"
   sodipodi:docname="github-logo-dark.svg"
   inkscape:version="1.4 (e7c3feb1, 2024-10-09)"
   xmlns:inkscape="http://www.inkscape.org/namespaces/inkscape"
   xmlns:sodipodi="http://sodipodi.sourceforge.net/DTD/sodipodi-0.dtd"
   xmlns="http://www.w3.org/2000/svg"
   xmlns:svg="http://www.w3.org/2000/svg">
  <defs
     id="defs1" />
  <sodipodi:namedview
     id="namedview1"
     pagecolor="#505050"
     bordercolor="#ffffff"
     borderopacity="1"
     inkscape:showpageshadow="0"
     inkscape:pageopacity="0"
     inkscape:pagecheckerboard="1"
     inkscape:deskcolor="#505050"
     inkscape:zoom="0.28726213"
     inkscape:cx="506.50603"
     inkscape:cy="509.98717"
     inkscape:window-width="1384"
     inkscape:window-height="688"
     inkscape:window-x="0"
     inkscape:window-y="39"
     inkscape:window-maximized="0"
     inkscape:current-layer="svg1" />
  <path
     fill-rule="evenodd"
     clip-rule="evenodd"
     d="M8 0C3.58 0 0 3.58 0 8C0 11.54 2.29 14.53 5.47 15.59C5.87 15.66 6.02 15.42 6.02 15.21C6.02 15.02 6.01 14.39 6.01 13.72C4 14.09 3.48 13.23 3.32 12.78C3.23 12.55 2.84 11.84 2.5 11.65C2.22 11.5 1.82 11.13 2.49 11.12C3.12 11.11 3.57 11.7 3.72 11.94C4.44 13.15 5.59 12.81 6.05 12.6C6.12 12.08 6.33 11.73 6.56 11.53C4.78 11.33 2.92 10.64 2.92 7.58C2.92 6.71 3.23 5.99 3.74 5.43C3.66 5.23 3.38 4.41 3.82 3.31C3.82 3.31 4.49 3.1 6.02 4.13C6.66 3.95 7.34 3.86 8.02 3.86C8.7 3.86 9.38 3.95 10.02 4.13C11.55 3.09 12.22 3.31 12.22 3.31C12.66 4.41 12.38 5.23 12.3 5.43C12.81 5.99 13.12 6.7 13.12 7.58C13.12 10.65 11.25 11.33 9.47 11.53C9.76 11.78 10.01 12.26 10.01 13.01C10.01 14.08 10 14.94 10 15.21C10 15.42 10.15 15.67 10.55 15.59C13.71 14.53 16 11.53 16 8C16 3.58 12.42 0 8 0Z"
     transform="scale(64)"
     fill="#1B1F23"
     id="path1" />
  <path
     style="fill:#a5b6d0;stroke-width:3.48114"
     d="M 313.67445,981.6775 C 155.00085,912.17788 48.443197,781.60247 11.425412,611.30251 0.45813,560.84761 0.52537764,463.17895 11.562734,411.85934 56.808498,201.48342 218.39866,45.096672 428.18035,8.6573747 470.30021,1.3411138 551.56,1.3818584 595.74142,8.7413917 700.00821,26.109672 794.83359,75.562828 872.26402,152.95298 c 73.75953,73.72116 116.60869,152.51383 139.86308,257.18545 10.1583,45.72434 10.969,150.21803 1.5274,196.88207 -34.09705,168.52016 -149.01292,310.46278 -303.6638,375.08156 -35.70815,14.92017 -53.10272,16.92416 -61.95892,7.13819 -5.02575,-5.55336 -5.76125,-17.08645 -5.76125,-90.33833 0,-48.91557 -1.63405,-91.67359 -3.91413,-102.41956 -4.19112,-19.75286 -17.70372,-49.40759 -24.39869,-53.54531 -2.24244,-1.38591 13.00126,-5.9925 33.87495,-10.23685 63.64306,-12.94093 100.24788,-31.22082 134.56682,-67.20064 36.14242,-37.89153 54.0021,-87.57427 57.15414,-158.99353 2.77238,-62.81779 -8.65965,-105.9055 -38.45074,-144.92168 -9.95982,-13.04398 -11.14254,-16.53438 -8.11321,-23.94326 6.40857,-15.67364 4.9286,-82.81068 -2.3591,-107.01549 -6.48227,-21.52985 -6.68376,-21.75714 -19.28518,-21.75714 -27.39125,0 -74.79921,18.04175 -116.37782,44.28917 l -13.78253,8.70053 -28.17667,-6.47358 c -40.7015,-9.35117 -158.54216,-9.32363 -199.31747,0.0466 l -28.41401,6.52957 -20.97332,-12.74061 c -41.00784,-24.91095 -83.65703,-40.35165 -111.45645,-40.35165 -8.66098,0 -10.29063,2.02603 -16.10048,20.01657 -8.42568,26.09063 -10.64688,77.11976 -4.37049,100.40644 4.68844,17.39506 4.59916,17.94421 -4.73488,29.12487 -14.02466,16.79929 -29.97717,51.2387 -36.45043,78.69178 -7.79208,33.04623 -5.0311,103.98597 5.47623,140.70445 25.39027,88.72778 87.39387,139.47756 191.72854,156.92936 l 26.35694,4.40865 -11.56209,17.18117 c -6.35914,9.44967 -11.57083,18.98193 -11.58151,21.18282 -0.0107,2.20088 -1.5952,9.67464 -3.52121,16.60838 -3.21637,11.57929 -5.14861,13.06887 -23.70664,18.27599 -55.46817,15.56359 -87.04245,1.6108 -132.88522,-58.72246 -19.1484,-25.20106 -42.64486,-40.4793 -65.65324,-42.69011 -17.96638,-1.72633 -31.81871,3.18281 -31.81871,11.27633 0,2.69645 6.53082,10.08229 14.51293,16.41295 26.33999,20.89036 40.66961,38.62041 56.99119,70.51521 19.02057,37.16905 34.36631,54.23232 58.66481,65.2307 16.01183,7.24756 22.9084,8.0477 69.36449,8.0477 h 51.58492 l -1.10839,51.6348 c -0.99522,46.36458 -1.79808,52.1384 -7.86571,56.56854 -11.04489,8.0642 -29.66465,5.38417 -62.49372,-8.9951 z"
     id="path2" />
</svg>
